<svg width="42" height="23" viewBox="0 0 42 23" fill="none" xmlns="http://www.w3.org/2000/svg">
<path d="M41.6999 3.89999C41.6999 5.79999 40.1999 7.29999 38.1999 7.29999C36.2999 7.29999 34.6999 5.79999 34.6999 3.89999C34.6999 1.99999 36.1999 0.499989 38.1999 0.499989C40.0999 0.599989 41.6999 2.09999 41.6999 3.89999ZM0.199946 13.2C-0.800054 18.3 2.49995 22.6 6.69995 22.6C6.99995 22.6 7.09995 22.4 6.99995 22.1C6.59995 20.9 6.39995 20 6.29995 18.2C6.29995 16.5 6.69995 14.8 7.39995 13.3C7.49995 13.1 7.29995 12.8 7.09995 12.8H0.699946C0.499946 12.8 0.299946 13 0.199946 13.2ZM41.2999 12.8H34.7999C34.4999 12.8 34.3999 13.1 34.4999 13.3C35.1999 14.8 35.5999 16.5 35.5999 18.2C35.5999 20 35.3999 20.8 34.8999 22.1C34.7999 22.3 34.9999 22.6 35.1999 22.6C39.2999 22.5 42.5999 18.3 41.6999 13.2C41.6999 12.9 41.4999 12.8 41.2999 12.8ZM18.3999 2.49999C18.3999 1.99999 18.3999 1.39999 18.3999 0.899988V0.799988C18.3999 0.599988 18.1999 0.399988 17.9999 0.399988H12.5999C12.3999 0.399988 12.1999 0.599988 12.1999 0.799988V15.1C12.0999 18 11.7999 20.5 11.2999 22.1C11.1999 22.3 11.3999 22.6 11.5999 22.6C14.6999 23 17.2999 21 18.1999 17.7C18.3999 17.2 18.4999 16.7 18.4999 16.1C18.4999 15.8 18.4999 15.6 18.4999 15.3C18.4999 12.1 18.3999 6.59999 18.3999 2.49999ZM27.5999 11.8C27.5999 7.49999 28.9999 3.59999 31.3999 0.699989C31.4999 0.499989 31.3999 0.299988 31.1999 0.299988C28.3999 0.599988 23.9999 2.29999 22.0999 5.79999C19.7999 9.89999 19.8999 14 22.4999 17.9C24.1999 20.5 27.4999 22.1 30.5999 22.7C30.7999 22.7 30.9999 22.5 30.8999 22.3C28.7999 19.3 27.5999 15.7 27.5999 11.8Z" fill="white"/>
</svg>
