<svg width="13" height="7" viewBox="0 0 13 7" fill="none" xmlns="http://www.w3.org/2000/svg">
<path d="M11.8515 0.151519C11.8066 0.103688 11.7524 0.0655656 11.6922 0.0395054C11.632 0.0134451 11.5671 0 11.5015 0C11.4359 0 11.371 0.0134451 11.3108 0.0395054C11.2506 0.0655656 11.1964 0.103688 11.1515 0.151519L6.35152 4.95152C6.25805 5.04313 6.1324 5.09445 6.00152 5.09445C5.87064 5.09445 5.74498 5.04313 5.65152 4.95152L0.851519 0.151519C0.806629 0.103688 0.752411 0.0655656 0.692213 0.0395054C0.632016 0.0134451 0.567115 0 0.501519 0C0.435922 0 0.371022 0.0134451 0.310824 0.0395054C0.250626 0.0655656 0.196409 0.103688 0.151519 0.151519C0.103688 0.196409 0.0655656 0.250626 0.0395054 0.310824C0.0134451 0.371022 0 0.435922 0 0.501519C0 0.567115 0.0134451 0.632016 0.0395054 0.692213C0.0655656 0.752411 0.103688 0.806629 0.151519 0.851519L5.29152 6.01152C5.38448 6.10525 5.49508 6.17964 5.61694 6.23041C5.7388 6.28118 5.86951 6.30732 6.00152 6.30732C6.13353 6.30732 6.26424 6.28118 6.3861 6.23041C6.50795 6.17964 6.61856 6.10525 6.71152 6.01152L11.8515 0.851519C11.8993 0.806629 11.9375 0.752411 11.9635 0.692213C11.9896 0.632016 12.003 0.567115 12.003 0.501519C12.003 0.435922 11.9896 0.371022 11.9635 0.310824C11.9375 0.250626 11.8993 0.196409 11.8515 0.151519Z" fill="#DE001C"/>
</svg>
