<svg width="25" height="14" viewBox="0 0 25 14" fill="none" xmlns="http://www.w3.org/2000/svg">
<path d="M24.7059 0.295798C24.6129 0.20207 24.5023 0.127676 24.3804 0.0769069C24.2586 0.0261382 24.1279 0 23.9959 0C23.8638 0 23.7331 0.0261382 23.6113 0.0769069C23.4894 0.127676 23.3788 0.20207 23.2859 0.295798L13.0659 10.4558C12.9142 10.606 12.7093 10.6903 12.4959 10.6903C12.2824 10.6903 12.0775 10.606 11.9259 10.4558L1.70586 0.295798C1.61289 0.20207 1.50229 0.127676 1.38043 0.0769069C1.25857 0.0261382 1.12787 0 0.995857 0C0.863845 0 0.73314 0.0261382 0.611281 0.0769069C0.489421 0.127676 0.37882 0.20207 0.285857 0.295798C0.10263 0.482727 0 0.734046 0 0.995798C0 1.25755 0.10263 1.50887 0.285857 1.6958L11.0859 12.4258C11.4606 12.7983 11.9675 13.0074 12.4959 13.0074C13.0242 13.0074 13.5311 12.7983 13.9059 12.4258L24.7059 1.6958C24.8891 1.50887 24.9917 1.25755 24.9917 0.995798C24.9917 0.734046 24.8891 0.482727 24.7059 0.295798Z" fill="#282828"/>
</svg>
