<svg width="83" height="47" viewBox="0 0 83 47" fill="none" xmlns="http://www.w3.org/2000/svg">
<path opacity="0.15" d="M78.5 20.5L76.5 18.1C76.2 17.9 66.2 16.2 65.3 15.6C62.6 13.4 57.9 9.7 56.1 8.1C52.6 5.2 50.4 4 45.8 4H31C27.7 4 26.2 4.9 24.6 5.9C20.4 8.5 13.6 14.8 12.1 16.2L8.7 16.8C6.1 17.2 4 19.7 4 22.4V32.6C4 33.3 4.3 34 4.8 34.5L9.1 38.9C9.6 39.4 10.3 39.7 11.1 39.7H13.2C13.9 43.9 17.5 47 21.9 47C26.3 47 29.9 43.8 30.6 39.7H57.3C58 43.8 61.6 47 66 47C70.4 47 74 43.8 74.7 39.7H77.3C78.1 39.7 78.9 39.4 79.4 38.8L82.3 35.5C82.7 35 83 34.3 83 33.7V26.2C83 23.5 81.1 21.1 78.5 20.5ZM59 21.5C58.6 22.5 57.6 23.1 56.5 23.1H25.3C24.4 23.1 23.6 22.7 23.1 21.9C22.6 21.2 22.5 20.3 22.9 19.5C23.1 19.1 24.1 17.1 25.8 14.9C28.7 11.2 31.3 10.3 32 10.3C35.2 10.3 45 10.3 45 10.3C47.7 10.3 48.5 10.9 51.2 12.9C53.1 14.3 58.3 18.6 58.4 18.7C59.1 19.4 59.4 20.5 59 21.5Z" fill="url(#paint0_linear)"/>
<path d="M55.3001 15.4C55.2001 15.4 49.9001 10.7 47.9001 9.19999C45.1001 6.99999 44.3001 6.39999 41.6001 6.39999C41.6001 6.39999 31.5001 6.39999 28.2001 6.39999C27.5001 6.39999 24.8001 7.29999 21.9001 11.3C20.1001 13.7 19.1001 15.9 18.9001 16.3C18.5001 17.1 18.6001 18.1 19.1001 18.9C19.6001 19.7 20.5001 20.1 21.4001 20.1H53.5001C54.6001 20.1 55.7001 19.4 56.1001 18.4C56.4001 17.3 56.1001 16.1 55.3001 15.4ZM20.7001 17.8C20.6001 17.6 20.6001 17.4 20.6001 17.1C20.8001 16.7 21.8001 14.7 23.4001 12.4C26.0001 9.09999 28.0001 8.39999 28.3001 8.39999H33.1001V18.2H21.3001C21.1001 18.1 20.8001 18 20.7001 17.8ZM54.2001 17.7C54.1001 18 53.8001 18.2 53.5001 18.2H35.1001V8.39999H41.6001C43.7001 8.39999 44.1001 8.69999 46.7001 10.8C48.6001 12.3 53.9001 16.9 54.0001 17C54.2001 17.1 54.3001 17.4 54.2001 17.7ZM35.1001 24.1C35.1001 23.6 35.5001 23.1 36.1001 23.1H39.1001C39.6001 23.1 40.1001 23.5 40.1001 24.1C40.1001 24.6 39.7001 25.1 39.1001 25.1H36.1001C35.5001 25.1 35.1001 24.6 35.1001 24.1Z" fill="#DE001C"/>
<path d="M75.4 17L64 13.4C62.7 12.3 55.3 6.3 52.8 4.2C49.2 1.2 46.9 0 42.4 0H27.4C24 0 22.5 1 20.9 2C16.6 4.6 9.7 11.1 8.2 12.6L4.8 13.2C2.1 13.6 0 16.2 0 18.9V29.4C0 30.1 0.3 30.8 0.8 31.3L5.2 35.8C5.7 36.3 6.4 36.6 7.2 36.6H10.2C10.9 40.8 14.5 43.9 18.9 43.9C23.3 43.9 26.9 40.7 27.6 36.6H54.3C55 40.8 58.6 44 63 44C67.4 44 71 40.8 71.7 36.7H74.3C75.1 36.7 75.9 36.4 76.4 35.8L79.3 32.5C79.7 32 80 31.3 80 30.7V22.8C80 20 78 17.6 75.4 17ZM10 35.2C10 35.5 10 35.7 10 36C10 35.7 10 35.4 10 35.2ZM18.9 42C15.1 42 12.1 38.9 12.1 35.2C12.1 31.4 15.2 28.4 18.9 28.4C22.7 28.4 25.7 31.5 25.7 35.2C25.7 38.9 22.6 42 18.9 42ZM54.1 35.2C54.1 35.5 54.1 35.7 54.1 36C54.1 35.7 54.1 35.4 54.1 35.2ZM63 42C59.2 42 56.2 38.9 56.2 35.2C56.2 31.4 59.3 28.4 63 28.4C66.8 28.4 69.8 31.5 69.8 35.2C69.8 38.9 66.7 42 63 42ZM78 30.6C78 30.8 77.9 31 77.8 31.1L74.9 34.4C74.8 34.6 74.5 34.7 74.3 34.7H71.8C71.5 30.1 67.7 26.4 63 26.4C58.3 26.4 54.5 30.1 54.2 34.7H27.7C27.4 30.1 23.6 26.4 18.9 26.4C14.2 26.4 10.4 30.1 10.1 34.7H7.2C7 34.7 6.8 34.6 6.6 34.5L2.2 30C2.1 29.8 2 29.6 2 29.4V18.9C2 17.1 3.4 15.4 5.2 15.1L8.6 14.5L9.2 14.4L9.6 14C9.9 13.7 17.5 6.4 21.9 3.6C23.4 2.6 24.5 1.9 27.3 1.9H42.3C46.2 1.9 48 2.8 51.4 5.7C53.7 7.6 60 12.7 62.6 14.9L62.9 15.1L63.3 15.2L74.8 18.8H74.9H75C76.7 19.2 78 20.8 78 22.6V30.6Z" fill="#64B5C5"/>
<defs>
<linearGradient id="paint0_linear" x1="83" y1="25.6616" x2="4" y2="25.6616" gradientUnits="userSpaceOnUse">
<stop stop-color="#DE001C"/>
<stop offset="1" stop-color="#DE001C" stop-opacity="0"/>
</linearGradient>
</defs>
</svg>
