<svg width="23" height="22" viewBox="0 0 23 22" fill="none" xmlns="http://www.w3.org/2000/svg">
<path d="M21.7128 4.5L17.5128 0.3C17.3128 0.1 17.0128 0 16.8128 0C16.6128 0 16.3128 0.1 16.1128 0.3L2.41281 13.9C1.91281 14.4 1.61281 15 1.41281 15.7L0.0128056 20.7C-0.0871944 21.4 0.412806 22 1.01281 22C1.11281 22 1.21281 22 1.31281 22L6.41281 20.6C7.11281 20.4 7.71281 20.1 8.21281 19.6L21.7128 5.9C22.1128 5.6 22.1128 4.9 21.7128 4.5ZM6.71281 18.1C6.51281 18.3 6.11281 18.5 5.81281 18.6L2.41281 19.5L3.31281 16.1C3.41281 15.8 3.61281 15.5 3.81281 15.2L6.71281 18.1ZM7.81281 17.1L5.01281 14.3L13.7128 5.6L16.5128 8.4L7.81281 17.1ZM17.5128 7.4L14.7128 4.6L16.8128 2.5L19.6128 5.3L17.5128 7.4Z" fill="#64B5C5"/>
</svg>
