<svg width="84" height="61" viewBox="0 0 84 61" fill="none" xmlns="http://www.w3.org/2000/svg">
<path opacity="0.15" d="M81.625 19.2L45.925 4.5C45.225 4.2 44.325 4 43.525 4C42.725 4 41.825 4.2 41.125 4.5L5.425 19.2C3.525 20 3.525 22.4 5.425 23.2L18.825 28.7V39.1C18.825 46.7 29.925 52.9 43.525 52.9C47.125 52.9 50.625 52.5 53.725 51.7V57.1C53.725 59.3 55.525 61 57.625 61C59.825 61 61.525 59.2 61.525 57.1V48.6C65.625 46.1 68.125 42.8 68.125 39.2V28.8L81.525 23.3C83.525 22.5 83.525 20 81.625 19.2Z" fill="url(#paint0_linear)"/>
<path d="M78.625 15.5L42.425 0.5C41.725 0.2 40.825 0 40.025 0C39.225 0 38.325 0.2 37.625 0.5L1.425 15.5C-0.475 16.3 -0.475 18.8 1.425 19.6L15.025 25.2V35.8C15.025 43.5 26.225 49.8 40.025 49.8C44.125 49.8 47.925 49.2 51.325 48.3V46.2C47.925 47.2 44.125 47.8 40.025 47.8C27.525 47.8 17.025 42.3 17.025 35.8V26L37.625 34.5C38.425 34.8 39.225 35 40.025 35C40.825 35 41.625 34.8 42.425 34.5L63.025 26V35.8C63.025 38.8 60.825 41.5 57.325 43.6V45.9C62.025 43.3 65.025 39.8 65.025 35.8V25.2L78.625 19.6C80.525 18.8 80.525 16.3 78.625 15.5ZM77.925 17.7L41.725 32.7C41.125 32.9 40.625 33 40.025 33C39.425 33 38.925 32.9 38.325 32.7L2.225 17.8C2.125 17.8 2.025 17.7 2.025 17.6C2.025 17.5 2.125 17.4 2.225 17.4L38.425 2.4C38.925 2.1 39.425 2 40.025 2C40.625 2 41.125 2.1 41.725 2.3L77.925 17.3C78.025 17.3 78.125 17.4 78.125 17.5C78.125 17.6 78.025 17.7 77.925 17.7Z" fill="#64B5C5"/>
<path d="M55.325 38.1V28C55.325 27.7 55.225 27.4 54.925 27.2L44.925 19C45.925 18.3 46.625 17.4 46.625 16.3C46.625 14.1 43.725 12.3 40.125 12.3C36.525 12.3 33.625 14.1 33.625 16.3C33.625 18.5 36.525 20.3 40.125 20.3C41.125 20.3 42.125 20.2 42.925 19.9L53.425 28.5V38.2C51.725 38.6 50.425 40.2 50.425 42.1V54.1C50.425 56.3 52.225 58.1 54.425 58.1C56.625 58.1 58.425 56.3 58.425 54.1V42C58.325 40.1 57.025 38.6 55.325 38.1ZM35.525 16.3C35.525 15.6 37.225 14.3 40.025 14.3C42.825 14.3 44.525 15.6 44.525 16.3C44.525 17 42.825 18.3 40.025 18.3C37.225 18.3 35.525 17 35.525 16.3ZM56.325 54C56.325 55.1 55.425 56 54.325 56C53.225 56 52.325 55.1 52.325 54V42C52.325 40.9 53.225 40 54.325 40C55.425 40 56.325 40.9 56.325 42V54Z" fill="#DE001C"/>
<defs>
<linearGradient id="paint0_linear" x1="83.0377" y1="32.7142" x2="4" y2="32.7142" gradientUnits="userSpaceOnUse">
<stop stop-color="#DE001C"/>
<stop offset="1" stop-color="#DE001C" stop-opacity="0"/>
</linearGradient>
</defs>
</svg>
