<svg width="78" height="70" viewBox="0 0 78 70" fill="none" xmlns="http://www.w3.org/2000/svg">
<path opacity="0.15" d="M72 14.041H7.5C5.6 14.041 4 15.541 4 17.541V53.041C4 56.341 6.7 59.041 10 59.041H23V68.041C23 68.641 23.4 69.041 24 69.041C24.6 69.041 25 68.641 25 68.041V59.041H34V68.041C34 68.641 34.4 69.041 35 69.041C35.6 69.041 36 68.641 36 68.041V59.041H45V68.041C45 68.641 45.4 69.041 46 69.041C46.6 69.041 47 68.641 47 68.041V59.041H56V68.041C56 68.641 56.4 69.041 57 69.041C57.6 69.041 58 68.641 58 68.041V59.041H72C75.3 59.041 78 56.341 78 53.041V20.041C78 16.641 75.3 14.041 72 14.041Z" fill="url(#paint0_linear)"/>
<path d="M61.5 47.041H13.5C12.9 47.041 12.5 46.641 12.5 46.041C12.5 45.441 12.9 45.041 13.5 45.041H61.5C62.1 45.041 62.5 45.441 62.5 46.041C62.5 46.641 62.1 47.041 61.5 47.041ZM22 65.041V52.041C22 51.441 21.6 51.041 21 51.041C20.4 51.041 20 51.441 20 52.041V65.041C20 65.641 20.4 66.041 21 66.041C21.6 66.041 22 65.641 22 65.041ZM33 65.041V52.041C33 51.441 32.6 51.041 32 51.041C31.4 51.041 31 51.441 31 52.041V65.041C31 65.641 31.4 66.041 32 66.041C32.6 66.041 33 65.641 33 65.041ZM44 65.041V52.041C44 51.441 43.6 51.041 43 51.041C42.4 51.041 42 51.441 42 52.041V65.041C42 65.641 42.4 66.041 43 66.041C43.6 66.041 44 65.641 44 65.041ZM55 65.041V52.041C55 51.441 54.6 51.041 54 51.041C53.4 51.041 53 51.441 53 52.041V65.041C53 65.641 53.4 66.041 54 66.041C54.6 66.041 55 65.641 55 65.041ZM49 10.041H39.2L44.1 1.54095C44.4 1.04095 44.2 0.440954 43.7 0.140954C43.2 -0.159046 42.6 0.040954 42.3 0.540954L37.5 9.04095L32.6 0.540954C32.3 0.040954 31.7 -0.059046 31.2 0.140954C30.7 0.440954 30.6 1.04095 30.8 1.54095L35.7 10.041H26C25.4 10.041 25 10.441 25 11.041C25 11.641 25.4 12.041 26 12.041H35.8L30.9 20.541C30.6 21.041 30.8 21.641 31.3 21.941C31.8 22.241 32.4 22.041 32.7 21.541L37.6 13.041L42.5 21.541C42.8 22.041 43.4 22.141 43.9 21.941C44.4 21.641 44.5 21.041 44.3 20.541L39.2 12.041H49C49.6 12.041 50 11.641 50 11.041C50 10.441 49.6 10.041 49 10.041Z" fill="#DE001C"/>
<path d="M69 10.041H54V12.041H60.5V30.041C60.5 32.241 58.7 34.041 56.5 34.041H18.5C16.3 34.041 14.5 32.241 14.5 30.041V12.041H21V10.041H6C2.7 10.041 0 12.741 0 16.041V50.041C0 53.341 2.7 56.041 6 56.041H16V54.041H6C3.8 54.041 2 52.241 2 50.041V16.041C2 13.841 3.8 12.041 6 12.041H12.5V30.041C12.5 33.341 15.2 36.041 18.5 36.041H56.5C59.8 36.041 62.5 33.341 62.5 30.041V12.041H69C71.2 12.041 73 13.841 73 16.041V50.041C73 52.241 71.2 54.041 69 54.041H59V56.041H69C72.3 56.041 75 53.341 75 50.041V16.041C75 12.641 72.3 10.041 69 10.041Z" fill="#64B5C5"/>
<defs>
<linearGradient id="paint0_linear" x1="78" y1="41.7476" x2="4" y2="41.7476" gradientUnits="userSpaceOnUse">
<stop stop-color="#DE001C"/>
<stop offset="1" stop-color="#DE001C" stop-opacity="0"/>
</linearGradient>
</defs>
</svg>
